<svg width="254" height="314" viewBox="0 0 254 314" fill="none" xmlns="http://www.w3.org/2000/svg">
<path d="M127.75 1.22809C191.453 33.9316 220.09 45.3736 253.25 48.3306V173.409C253.25 200.909 221.561 242.882 192.088 268.694C177.142 281.783 162.243 292.03 151.101 299.001C145.519 302.492 140.853 305.179 137.56 307.003C135.912 307.916 134.606 308.614 133.698 309.09C133.245 309.329 132.89 309.512 132.643 309.639C132.519 309.703 132.421 309.752 132.352 309.788C132.317 309.805 132.289 309.82 132.268 309.831C132.257 309.836 132.248 309.84 132.241 309.843C132.238 309.845 132.231 309.848 132.231 309.848C132.225 309.844 132.113 309.627 127.75 300.909L132.226 309.851L127.75 312.091V289.572C127.788 289.551 127.827 289.53 127.866 289.508C130.889 287.833 135.247 285.326 140.493 282.044C151.007 275.468 164.983 265.846 178.912 253.648C207.25 236.909 236.25 198.909 227.75 163.409C246.75 143.409 243.25 109.409 233.25 62.1861C202.483 61.1801 175.152 46.6471 127.75 22.5894V1.22809Z" fill="#A20519"/>
<path d="M126.25 1.22809C62.5473 33.9316 33.91 45.3736 0.75 48.3306V173.409C0.75 200.909 32.4385 242.882 61.9121 268.694C76.8581 281.783 91.7567 292.03 102.899 299.001C108.481 302.492 113.147 305.179 116.44 307.003C118.088 307.916 119.394 308.614 120.302 309.09C120.755 309.329 121.11 309.512 121.357 309.639C121.481 309.703 121.579 309.752 121.648 309.788C121.683 309.805 121.711 309.82 121.732 309.831C121.743 309.836 121.752 309.84 121.759 309.843C121.762 309.845 121.769 309.848 121.769 309.848C121.775 309.844 121.887 309.627 126.25 300.909L121.774 309.851L126.25 312.091V289.572C126.212 289.551 126.173 289.53 126.134 289.508C123.111 287.833 118.753 285.326 113.507 282.044C102.993 275.468 89.0167 265.846 75.0879 253.648C46.75 236.909 17.75 198.909 26.25 163.409C7.25 143.409 10.75 109.409 20.75 62.1861C51.5168 61.1801 78.8477 46.6471 126.25 22.5894V1.22809Z" fill="#A20519"/>
<path d="M127.75 1.22809C191.453 33.9316 220.09 45.3736 253.25 48.3306V173.409C253.25 200.909 221.561 242.882 192.088 268.694C177.142 281.783 162.243 292.03 151.101 299.001C145.519 302.492 140.853 305.179 137.56 307.003C135.912 307.916 134.606 308.614 133.698 309.09C133.245 309.329 132.89 309.512 132.643 309.639C132.519 309.703 132.421 309.752 132.352 309.788C132.317 309.805 132.289 309.82 132.268 309.831C132.257 309.836 132.248 309.84 132.241 309.843C132.238 309.845 132.231 309.848 132.231 309.848C132.225 309.844 132.113 309.627 127.75 300.909L132.226 309.851L127.75 312.091V289.572C127.788 289.551 127.827 289.53 127.866 289.508C130.889 287.833 135.247 285.326 140.493 282.044C151.007 275.468 164.983 265.846 178.912 253.648C207.25 236.909 236.25 198.909 227.75 163.409C246.75 143.409 243.25 109.409 233.25 62.1861C202.483 61.1801 175.152 46.6471 127.75 22.5894V1.22809Z" stroke="#A20519" stroke-width="1.5" stroke-linecap="round"/>
<path d="M126.25 1.22809C62.5473 33.9316 33.91 45.3736 0.75 48.3306V173.409C0.75 200.909 32.4385 242.882 61.9121 268.694C76.8581 281.783 91.7567 292.03 102.899 299.001C108.481 302.492 113.147 305.179 116.44 307.003C118.088 307.916 119.394 308.614 120.302 309.09C120.755 309.329 121.11 309.512 121.357 309.639C121.481 309.703 121.579 309.752 121.648 309.788C121.683 309.805 121.711 309.82 121.732 309.831C121.743 309.836 121.752 309.84 121.759 309.843C121.762 309.845 121.769 309.848 121.769 309.848C121.775 309.844 121.887 309.627 126.25 300.909L121.774 309.851L126.25 312.091V289.572C126.212 289.551 126.173 289.53 126.134 289.508C123.111 287.833 118.753 285.326 113.507 282.044C102.993 275.468 89.0167 265.846 75.0879 253.648C46.75 236.909 17.75 198.909 26.25 163.409C7.25 143.409 10.75 109.409 20.75 62.1861C51.5168 61.1801 78.8477 46.6471 126.25 22.5894V1.22809Z" stroke="#A20519" stroke-width="1.5" stroke-linecap="round"/>
<path d="M132.747 37.6353C141.348 48.5566 147.11 57.4488 149.613 67.3687C152.105 77.2468 151.351 88.0828 147.078 102.878C149.492 106.21 151.425 108.273 152.997 109.253C153.791 109.747 154.454 109.94 155.013 109.917C155.561 109.893 156.074 109.659 156.575 109.171C157.611 108.162 158.512 106.144 159.347 103.097C160.174 100.077 160.912 96.1411 161.681 91.3912L161.9 90.0416L162.603 91.2134C166.483 97.6773 169.804 103.415 172.254 108.644C174.704 113.872 176.297 118.621 176.702 123.106C177.109 127.604 176.32 131.822 174.031 135.978C172.275 139.164 169.644 142.297 166.022 145.49C188.515 133.909 201.506 123.52 207.319 111.453C213.46 98.7031 211.647 83.95 204.236 63.6285L205.133 63.1988C215.686 80.7005 225.234 96.1496 226.605 114.086C227.978 132.059 221.145 152.432 199.23 179.826L199.186 179.879L199.129 179.92C197.109 181.364 195.927 182.797 195.361 184.855C194.831 186.783 194.829 189.304 195.292 192.968L215.797 173.009L215.46 174.614C212.164 190.315 208.605 201.008 203.516 209.227C198.418 217.46 191.809 223.175 182.482 228.962L181.442 229.607L184.457 217.26C180.308 228.699 176.327 236.105 167.852 242.444L167.718 242.544H159.009C152.06 252.152 148.479 259.748 142.603 276.228L141.636 275.995C142.412 270.147 142.684 265.737 142.267 261.593C141.873 257.675 140.859 253.972 139.048 249.5L127.36 263.377L127.046 263.748V264.423L126.761 264.086L126.477 264.423V263.748L126.163 263.377L114.475 249.501C112.664 253.972 111.65 257.675 111.256 261.593C110.839 265.737 111.111 270.147 111.887 275.995L110.92 276.228C105.044 259.749 101.464 252.152 94.515 242.544H85.805L85.6712 242.445C77.196 236.105 73.215 228.699 69.0658 217.26L72.0814 229.608L71.0413 228.962C61.7147 223.175 55.1048 217.46 50.0072 209.227C44.9178 201.008 41.3589 190.314 38.0628 174.614L37.7259 173.009L58.2308 192.968C58.6939 189.304 58.6924 186.784 58.1624 184.856C57.5967 182.798 56.414 181.364 54.3939 179.92L54.3372 179.88L54.2933 179.826C32.3788 152.432 25.5455 132.06 26.9183 114.087C28.2886 96.1505 37.8368 80.7014 48.39 63.1998L49.2874 63.6285C41.8759 83.95 40.0633 98.7041 46.2044 111.454C51.9618 123.406 64.7619 133.714 86.8626 145.163C83.6059 142.608 81.2014 140.586 79.5628 138.813C77.2702 136.332 76.3896 134.249 76.8265 131.817C77.0394 130.633 77.5593 129.399 78.3177 128.03C79.0766 126.66 80.0899 125.127 81.3089 123.346C83.7516 119.777 87.0496 115.169 90.9202 108.722L91.6234 107.55L91.8421 108.9C92.2256 111.269 92.591 113.032 92.9535 114.284C93.1347 114.909 93.3118 115.397 93.4847 115.761C93.6602 116.131 93.8174 116.346 93.9427 116.459C94.0545 116.559 94.117 116.56 94.1527 116.555C94.2134 116.548 94.3348 116.502 94.5208 116.332C94.8987 115.984 95.3483 115.304 95.8851 114.297C96.9553 112.291 98.2191 109.301 99.8783 105.864C101.524 102.455 103.532 98.6672 106.039 95.1812L106.094 95.1041L106.173 95.0533L126.275 82.0474L126.8 81.7056C130.434 74.5594 132.285 68.4862 132.946 61.8765C133.624 55.091 133.055 47.7197 131.858 38.0064L131.639 36.2281L132.747 37.6353Z" fill="#A20519"/>
<path d="M164.163 197.319C172.228 192.126 176.384 190.661 183.504 189.228C174.814 197.198 170.937 201.688 165.528 209.729C160.24 213.062 156.932 212.774 150.91 211.492C154.377 207.229 156.484 204.717 164.163 197.319Z" fill="white"/>
<path fill-rule="evenodd" clip-rule="evenodd" d="M103.558 173.728C91.5576 158.728 40.0576 143.728 37.0576 97.2281C32.5576 128.228 38.4191 164.729 74.5576 172.728C106.679 179.838 117.558 203.228 121.558 209.728C121.558 209.728 115.558 188.728 103.558 173.728Z" fill="white"/>
<path d="M125.25 133.228C149.733 99.8631 146.019 72.0193 138.25 52.7281C136.591 91.0908 127.75 94.7281 109.75 127.728C91.7503 160.728 127.75 208.228 127.75 208.228C127.75 208.228 100.768 166.593 125.25 133.228Z" fill="white"/>
<path d="M156.916 146.164C163.336 143.459 168.15 134.353 169.849 119.379C161.049 137.17 156.367 130.236 145.25 141.728C134.134 153.22 133.983 177.597 133.631 180.733C140.882 155.113 150.496 148.87 156.916 146.164Z" fill="white"/>
<path d="M98.87 146.728C92.87 140.228 85.87 127.228 90.37 116.228C87.37 117.728 81.87 130.228 82.87 134.228C84.4343 140.485 91.37 143.228 98.87 146.728Z" fill="white"/>
</svg>
